# xmcd
#
# Track frame offsets:
#	167
#	29087
#	47810
#	65465
#	93582
#	112972
#	141890
#	161400
#	175380
#	194140
#	209915
#	222392
#	240432
#
# Disc length: 3456 seconds
#
# Revision: 0
# Processed by: cddbd v1.4PL0 Copyright (c) Steve Scherf et al.
# Submitted via: EasyCDDAExtractor 4.5.0.1
#
DISCID=cd0d7e0d
DTITLE=Luther Johnson - They Call Me The Popcorn Man
DYEAR=1900
DGENRE=blues
TTITLE0=Lonesome In My Bedroom
TTITLE1=Little Queenie
TTITLE2=They Call Me The Popcorn Man
TTITLE3=Honey Bee
TTITLE4=Rock Me Slow And Easy
TTITLE5=Long Distance Call
TTITLE6=Hush Hush
TTITLE7=She's My Babe
TTITLE8=Jammin' With Willie
TTITLE9=Please Don't Take My Baby Nowhere
TTITLE10=Please Give Me That Love
TTITLE11=They Call Me The Popcorn Man
TTITLE12=Got My Mojo Working
EXTD=
EXTT0=
EXTT1=
EXTT2=
EXTT3=
EXTT4=
EXTT5=
EXTT6=
EXTT7=
EXTT8=
EXTT9=
EXTT10=
EXTT11=
EXTT12=
PLAYORDER=
